<mxfile host="65bd71144e">
    <diagram id="JhiUp0wVJE9KQ3e7hARv" name="MER">
        <mxGraphModel dx="760" dy="363" grid="0" gridSize="10" guides="1" tooltips="1" connect="1" arrows="1" fold="1" page="1" pageScale="1" pageWidth="827" pageHeight="1169" background="none" math="0" shadow="0">
            <root>
                <mxCell id="0"/>
                <mxCell id="1" parent="0"/>
                <mxCell id="14" value="Solicitation" style="swimlane;labelBackgroundColor=none;labelBorderColor=none;fontFamily=Helvetica;fontSize=11;startSize=23;rounded=0;" parent="1" vertex="1">
                    <mxGeometry x="250" y="40" width="130" height="95" as="geometry">
                        <mxRectangle x="30" y="35" width="60" height="23" as="alternateBounds"/>
                    </mxGeometry>
                </mxCell>
                <mxCell id="15" value="&lt;div style=&quot;color: rgb(255 , 255 , 255) ; font-size: 12px&quot;&gt;&lt;font face=&quot;Helvetica&quot;&gt;id&lt;/font&gt;&lt;/div&gt;&lt;div style=&quot;color: rgb(255 , 255 , 255) ; font-size: 12px&quot;&gt;&lt;font face=&quot;Helvetica&quot;&gt;userId&lt;/font&gt;&lt;/div&gt;&lt;div style=&quot;color: rgb(255 , 255 , 255) ; font-size: 12px&quot;&gt;&lt;font face=&quot;Helvetica&quot;&gt;reqRole&lt;/font&gt;&lt;/div&gt;" style="text;html=1;align=left;verticalAlign=middle;resizable=0;points=[];autosize=1;strokeColor=none;fillColor=none;fontSize=11;fontFamily=Times New Roman;rounded=0;" parent="14" vertex="1">
                    <mxGeometry x="10" y="37" width="52" height="43" as="geometry"/>
                </mxCell>
                <mxCell id="26" style="edgeStyle=none;html=1;entryX=0;entryY=0.5;entryDx=0;entryDy=0;fontFamily=Helvetica;fontSize=12;startArrow=ERone;startFill=0;endArrow=ERone;endFill=0;rounded=0;startSize=12;endSize=12;" parent="1" source="16" target="14" edge="1">
                    <mxGeometry relative="1" as="geometry"/>
                </mxCell>
                <mxCell id="16" value="User" style="swimlane;labelBackgroundColor=none;labelBorderColor=none;fontFamily=Helvetica;fontSize=11;startSize=23;rounded=0;" parent="1" vertex="1">
                    <mxGeometry x="30" y="40" width="130" height="95" as="geometry">
                        <mxRectangle x="30" y="35" width="60" height="23" as="alternateBounds"/>
                    </mxGeometry>
                </mxCell>
                <mxCell id="17" value="&lt;div style=&quot;color: rgb(255 , 255 , 255) ; font-size: 12px&quot;&gt;&lt;font style=&quot;font-size: 12px&quot; face=&quot;Helvetica&quot;&gt;id&lt;br&gt;&lt;/font&gt;&lt;/div&gt;&lt;font style=&quot;color: rgb(255 , 255 , 255) ; font-size: 12px&quot;&gt;&lt;font style=&quot;font-size: 12px&quot; face=&quot;Helvetica&quot;&gt;&lt;div&gt;email&lt;/div&gt;&lt;div&gt;imgSrc&lt;/div&gt;&lt;div&gt;role&lt;/div&gt;&lt;/font&gt;&lt;/font&gt;" style="text;html=1;align=left;verticalAlign=middle;resizable=0;points=[];autosize=1;strokeColor=none;fillColor=none;fontSize=11;fontFamily=Times New Roman;rounded=0;" parent="16" vertex="1">
                    <mxGeometry x="10" y="28" width="50" height="60" as="geometry"/>
                </mxCell>
                <mxCell id="22" style="edgeStyle=none;html=1;entryX=0;entryY=0.5;entryDx=0;entryDy=0;fontFamily=Helvetica;fontSize=12;startArrow=ERone;startFill=0;endArrow=ERoneToMany;endFill=0;rounded=0;endSize=12;targetPerimeterSpacing=0;startSize=12;" parent="1" source="18" target="20" edge="1">
                    <mxGeometry relative="1" as="geometry"/>
                </mxCell>
                <mxCell id="18" value="Station" style="swimlane;labelBackgroundColor=none;labelBorderColor=none;fontFamily=Helvetica;fontSize=11;startSize=23;rounded=0;" parent="1" vertex="1">
                    <mxGeometry x="30" y="230.5" width="129" height="138.5" as="geometry">
                        <mxRectangle x="30" y="35" width="60" height="23" as="alternateBounds"/>
                    </mxGeometry>
                </mxCell>
                <mxCell id="19" value="&lt;div style=&quot;color: rgb(255 , 255 , 255) ; font-size: 12px&quot;&gt;&lt;font style=&quot;font-size: 12px&quot; face=&quot;Helvetica&quot;&gt;id&lt;br&gt;&lt;/font&gt;&lt;/div&gt;&lt;div style=&quot;color: rgb(255 , 255 , 255) ; font-size: 12px&quot;&gt;&lt;font style=&quot;font-size: 12px&quot; face=&quot;Helvetica&quot;&gt;name&lt;/font&gt;&lt;/div&gt;&lt;div style=&quot;color: rgb(255 , 255 , 255) ; font-size: 12px&quot;&gt;&lt;span style=&quot;font-family: &amp;#34;helvetica&amp;#34;&quot;&gt;description&lt;/span&gt;&lt;/div&gt;&lt;font style=&quot;color: rgb(255 , 255 , 255) ; font-size: 12px&quot;&gt;&lt;font style=&quot;font-size: 12px&quot; face=&quot;Helvetica&quot;&gt;&lt;div&gt;lat&lt;/div&gt;&lt;div&gt;lon&lt;/div&gt;&lt;div&gt;startDate&lt;/div&gt;&lt;/font&gt;&lt;/font&gt;" style="text;html=1;align=left;verticalAlign=middle;resizable=0;points=[];autosize=1;strokeColor=none;fillColor=none;fontSize=11;fontFamily=Times New Roman;rounded=0;" parent="18" vertex="1">
                    <mxGeometry x="8" y="39.5" width="68" height="82" as="geometry"/>
                </mxCell>
                <mxCell id="25" style="edgeStyle=none;html=1;entryX=0.5;entryY=0;entryDx=0;entryDy=0;fontFamily=Helvetica;fontSize=12;startArrow=ERone;startFill=0;endArrow=ERoneToMany;endFill=0;rounded=0;endSize=12;startSize=12;" parent="1" source="20" target="23" edge="1">
                    <mxGeometry relative="1" as="geometry"/>
                </mxCell>
                <mxCell id="20" value="Parameter" style="swimlane;labelBackgroundColor=none;labelBorderColor=none;fontFamily=Helvetica;fontSize=11;startSize=23;rounded=0;" parent="1" vertex="1">
                    <mxGeometry x="260" y="242.75" width="129" height="114" as="geometry">
                        <mxRectangle x="30" y="35" width="60" height="23" as="alternateBounds"/>
                    </mxGeometry>
                </mxCell>
                <mxCell id="21" value="&lt;div style=&quot;color: rgb(255 , 255 , 255) ; font-size: 12px&quot;&gt;&lt;font style=&quot;font-size: 12px&quot; face=&quot;Helvetica&quot;&gt;id&lt;/font&gt;&lt;/div&gt;&lt;div style=&quot;color: rgb(255 , 255 , 255) ; font-size: 12px&quot;&gt;&lt;font style=&quot;font-size: 12px&quot; face=&quot;Helvetica&quot;&gt;IdParameterType&lt;/font&gt;&lt;/div&gt;&lt;div style=&quot;color: rgb(255 , 255 , 255) ; font-size: 12px&quot;&gt;&lt;font face=&quot;Helvetica&quot;&gt;idStation&lt;/font&gt;&lt;/div&gt;" style="text;html=1;align=left;verticalAlign=middle;resizable=0;points=[];autosize=1;strokeColor=none;fillColor=none;fontSize=11;fontFamily=Times New Roman;rounded=0;" parent="20" vertex="1">
                    <mxGeometry x="8" y="38" width="102" height="43" as="geometry"/>
                </mxCell>
                <mxCell id="23" value="Measurement" style="swimlane;labelBackgroundColor=none;labelBorderColor=none;fontFamily=Helvetica;fontSize=11;startSize=23;rounded=0;" parent="1" vertex="1">
                    <mxGeometry x="260" y="449" width="130" height="120" as="geometry">
                        <mxRectangle x="30" y="35" width="60" height="23" as="alternateBounds"/>
                    </mxGeometry>
                </mxCell>
                <mxCell id="24" value="&lt;div style=&quot;color: rgb(255 , 255 , 255) ; font-size: 12px&quot;&gt;&lt;font style=&quot;font-size: 12px&quot; face=&quot;Helvetica&quot;&gt;id&lt;br&gt;&lt;/font&gt;&lt;/div&gt;&lt;div style=&quot;color: rgb(255 , 255 , 255) ; font-size: 12px&quot;&gt;&lt;font face=&quot;Helvetica&quot;&gt;moment&lt;/font&gt;&lt;/div&gt;&lt;font style=&quot;color: rgb(255 , 255 , 255) ; font-size: 12px&quot;&gt;&lt;font style=&quot;font-size: 12px&quot; face=&quot;Helvetica&quot;&gt;&lt;div&gt;value&lt;/div&gt;&lt;div&gt;idParameter&lt;/div&gt;&lt;/font&gt;&lt;/font&gt;" style="text;html=1;align=left;verticalAlign=middle;resizable=0;points=[];autosize=1;strokeColor=none;fillColor=none;fontSize=11;fontFamily=Times New Roman;rounded=0;" parent="23" vertex="1">
                    <mxGeometry x="10" y="37" width="75" height="56" as="geometry"/>
                </mxCell>
                <mxCell id="27" value="Parameter Type" style="swimlane;labelBackgroundColor=none;labelBorderColor=none;fontFamily=Helvetica;fontSize=11;startSize=23;rounded=0;" parent="1" vertex="1">
                    <mxGeometry x="499" y="146" width="128" height="125" as="geometry">
                        <mxRectangle x="30" y="35" width="60" height="23" as="alternateBounds"/>
                    </mxGeometry>
                </mxCell>
                <mxCell id="28" value="&lt;div style=&quot;color: rgb(255 , 255 , 255) ; font-size: 12px&quot;&gt;&lt;font style=&quot;font-size: 12px&quot; face=&quot;Helvetica&quot;&gt;id&lt;/font&gt;&lt;/div&gt;&lt;div style=&quot;color: rgb(255 , 255 , 255) ; font-size: 12px&quot;&gt;&lt;font style=&quot;font-size: 12px&quot; face=&quot;Helvetica&quot;&gt;name&lt;/font&gt;&lt;/div&gt;&lt;div style=&quot;color: rgb(255 , 255 , 255) ; font-size: 12px&quot;&gt;&lt;span style=&quot;font-family: &amp;#34;helvetica&amp;#34;&quot;&gt;unit&lt;/span&gt;&lt;/div&gt;&lt;div style=&quot;color: rgb(255 , 255 , 255) ; font-size: 12px&quot;&gt;&lt;span style=&quot;font-family: &amp;#34;helvetica&amp;#34;&quot;&gt;factor&lt;/span&gt;&lt;/div&gt;&lt;div style=&quot;color: rgb(255 , 255 , 255) ; font-size: 12px&quot;&gt;&lt;span style=&quot;font-family: &amp;#34;helvetica&amp;#34;&quot;&gt;type&lt;/span&gt;&lt;/div&gt;&lt;div style=&quot;color: rgb(255 , 255 , 255) ; font-size: 12px&quot;&gt;&lt;span style=&quot;font-family: &amp;#34;helvetica&amp;#34;&quot;&gt;status&lt;/span&gt;&lt;/div&gt;" style="text;html=1;align=left;verticalAlign=middle;resizable=0;points=[];autosize=1;strokeColor=none;fillColor=none;fontSize=11;fontFamily=Times New Roman;rounded=0;" parent="27" vertex="1">
                    <mxGeometry x="10" y="29" width="42" height="82" as="geometry"/>
                </mxCell>
                <mxCell id="30" style="edgeStyle=none;html=1;entryX=0.5;entryY=1;entryDx=0;entryDy=0;fontFamily=Helvetica;fontSize=12;startArrow=ERoneToMany;startFill=0;endArrow=ERone;endFill=0;rounded=0;endSize=12;targetPerimeterSpacing=0;startSize=12;exitX=1;exitY=0.5;exitDx=0;exitDy=0;" parent="1" source="20" target="27" edge="1">
                    <mxGeometry relative="1" as="geometry">
                        <mxPoint x="417" y="289" as="sourcePoint"/>
                        <mxPoint x="464" y="290.08" as="targetPoint"/>
                        <Array as="points">
                            <mxPoint x="563" y="300"/>
                        </Array>
                    </mxGeometry>
                </mxCell>
                <mxCell id="31" value="Alert" style="swimlane;labelBackgroundColor=none;labelBorderColor=none;fontFamily=Helvetica;fontSize=11;startSize=23;rounded=0;" vertex="1" parent="1">
                    <mxGeometry x="497" y="449" width="130" height="196" as="geometry">
                        <mxRectangle x="30" y="35" width="60" height="23" as="alternateBounds"/>
                    </mxGeometry>
                </mxCell>
                <mxCell id="32" value="&lt;div style=&quot;color: rgb(255 , 255 , 255) ; font-size: 12px&quot;&gt;&lt;font face=&quot;Helvetica&quot;&gt;Id&lt;/font&gt;&lt;/div&gt;&lt;div style=&quot;color: rgb(255 , 255 , 255) ; font-size: 12px&quot;&gt;&lt;font face=&quot;Helvetica&quot;&gt;&lt;br&gt;&lt;/font&gt;&lt;/div&gt;&lt;div style=&quot;color: rgb(255 , 255 , 255) ; font-size: 12px&quot;&gt;maxMeasurement&lt;/div&gt;&lt;div style=&quot;color: rgb(255 , 255 , 255) ; font-size: 12px&quot;&gt;mediumMeasurement&lt;/div&gt;&lt;div style=&quot;color: rgb(255 , 255 , 255) ; font-size: 12px&quot;&gt;minMeasurement&lt;/div&gt;&lt;div style=&quot;color: rgb(255 , 255 , 255) ; font-size: 12px&quot;&gt;&lt;br&gt;&lt;/div&gt;&lt;div style=&quot;color: rgb(255 , 255 , 255) ; font-size: 12px&quot;&gt;created_at&lt;/div&gt;&lt;div style=&quot;color: rgb(255 , 255 , 255) ; font-size: 12px&quot;&gt;updated_at&lt;/div&gt;&lt;div style=&quot;color: rgb(255 , 255 , 255) ; font-size: 12px&quot;&gt;&lt;br&gt;&lt;/div&gt;&lt;div style=&quot;color: rgb(255 , 255 , 255) ; font-size: 12px&quot;&gt;&lt;span style=&quot;font-family: &amp;#34;helvetica&amp;#34;&quot;&gt;ParameterId&lt;/span&gt;&lt;br&gt;&lt;/div&gt;" style="text;html=1;align=left;verticalAlign=middle;resizable=0;points=[];autosize=1;strokeColor=none;fillColor=none;fontSize=11;fontFamily=Times New Roman;rounded=0;" vertex="1" parent="31">
                    <mxGeometry x="5" y="37" width="115" height="134" as="geometry"/>
                </mxCell>
                <mxCell id="33" style="edgeStyle=none;html=1;entryX=0.5;entryY=0;entryDx=0;entryDy=0;fontFamily=Helvetica;fontSize=12;startArrow=ERone;startFill=0;endArrow=ERone;endFill=0;rounded=0;endSize=12;targetPerimeterSpacing=0;startSize=12;exitX=1;exitY=0.75;exitDx=0;exitDy=0;" edge="1" parent="1" source="20" target="31">
                    <mxGeometry relative="1" as="geometry">
                        <mxPoint x="384" y="316" as="sourcePoint"/>
                        <mxPoint x="512" y="193.5" as="targetPoint"/>
                        <Array as="points">
                            <mxPoint x="563" y="328"/>
                        </Array>
                    </mxGeometry>
                </mxCell>
            </root>
        </mxGraphModel>
    </diagram>
</mxfile>